<?xml version="1.0" encoding="utf-8" ?>
<svg baseProfile="full" height="200mm" version="1.1" viewBox="0,0,200,200" width="200mm" xmlns="http://www.w3.org/2000/svg" xmlns:ev="http://www.w3.org/2001/xml-events" xmlns:xlink="http://www.w3.org/1999/xlink"><defs /><rect fill="#1a1a1a" height="200" width="200" x="0" y="0" /><text alignment-baseline="middle" fill="#e1ed5e" style="dominant-baseline: central; font-size:9.0px; font-family:Arial;" text-anchor="middle" x="100.0" y="100.0">2023</text><line stroke="#e1ed5e" stroke-width="0.3" x1="100.0" x2="100.0" y1="15.0" y2="10.0" /><path d="M 100.0 14.0 a86.0,86.0 0 0,1 42.46469731375804,11.215312516191453" fill="none" id="id13" stroke="none" /><text fill="#e1ed5e" style="font-size:6.75px; font-family:Arial;" text-anchor="middle"><textPath startOffset="22.20632615414155" xlink:href="#id13">January</textPath></text><line stroke="#e1ed5e" stroke-width="0.3" x1="143.23703022742887" x2="145.7803849466894" y1="26.81831364943548" y2="22.513508569990506" /><path d="M 143.74570117128098 25.957352633546492 a86.0,86.0 0 0,1 28.547481713284135,27.462654790039103" fill="none" id="id14" stroke="none" /><text fill="#e1ed5e" style="font-size:6.75px; font-family:Arial;" text-anchor="middle"><textPath startOffset="19.985693538727396" xlink:href="#id14">February</textPath></text><path d="M 115.9244219780498 86.31012108654704 l 38.40464246704959 -33.015635092630795 a71.64532282049018,71.64532282049018 0 0,0 0.7959092098718854,0.9421054618005666 l -38.9672622904086 32.349670681201125" fill="#37ff7a" stroke="none" /><path d="M 116.38621287248628 86.86637796730983 l 49.158638617458855 -39.400866098070516 a84.0,84.0 0 0,0 0.8945836776241438,1.1360304241878465 l -49.829576375676965 38.54884327992963" fill="#4dd2ff" stroke="none" /><line stroke="#e1ed5e" stroke-width="0.3" x1="172.23445277983987" x2="176.4835382374775" y1="55.19839476539836" y2="52.563006222186495" /><path d="M 173.08426987136738 54.67131705675599 a86.0,86.0 0 0,1 12.851231095245387,41.99856678651699" fill="none" id="id15" stroke="none" /><text fill="#e1ed5e" style="font-size:6.75px; font-family:Arial;" text-anchor="middle"><textPath startOffset="22.20632615414155" xlink:href="#id15">March</textPath></text><path d="M 117.84615892207809 88.93136811851018 l 45.0564768980318 -27.945148243871614 a74.01902885601389,74.01902885601389 0 0,0 0.6622383880114822,1.0885457860310506 l -45.5308310843295 27.16543468463348" fill="#3bff9f" stroke="none" /><line stroke="#e1ed5e" stroke-width="0.3" x1="184.98032266829074" x2="189.97916517819016" y1="98.17113171792111" y2="98.06355123074" /><path d="M 185.9800911702706 98.14961562048488 a86.0,86.0 0 0,1 -9.607161424134198,41.387399972396054" fill="none" id="id16" stroke="none" /><text fill="#e1ed5e" style="font-size:6.75px; font-family:Arial;" text-anchor="middle"><textPath startOffset="21.466115282336823" xlink:href="#id16">April</textPath></text><line stroke="#e1ed5e" stroke-width="0.3" x1="174.80103733775053" x2="179.2010983576182" y1="140.37084112569926" y2="142.7455964860345" /><path d="M 175.68104954172406 140.8457921977663 a86.0,86.0 0 0,1 -30.038265399797805,32.042727171017184" fill="none" id="id17" stroke="none" /><text fill="#e1ed5e" style="font-size:6.75px; font-family:Arial;" text-anchor="middle"><textPath startOffset="22.206326154141568" xlink:href="#id17">May</textPath></text><line stroke="#e1ed5e" stroke-width="0.3" x1="143.8653032363475" x2="146.44561519142675" y1="172.8068346515853" y2="177.08958963109032" /><path d="M 144.38136562736335 173.6633856474863 a86.0,86.0 0 0,1 -40.68145358897372,12.25698825130547" fill="none" id="id18" stroke="none" /><text fill="#e1ed5e" style="font-size:6.75px; font-family:Arial;" text-anchor="middle"><textPath startOffset="21.466115282336833" xlink:href="#id18">June</textPath></text><path d="M 108.59647513512805 119.15986991738527 l 9.874274040155175 22.007834974697385 a45.12148602581516,45.12148602581516 0 0,0 -0.7113710072317369,0.3118441443035576 l -9.493982358265685 -22.1745436722954" fill="#ff6109" stroke="none" /><path d="M 101.98527174616119 120.90594882070398 l 3.6843892467949986 38.79854391621124 a59.973089871603335,59.973089871603335 0 0,0 -1.0285547190407207,0.08874802909138056 l -3.015990210012736 -38.85621619758128" fill="#99ff23" stroke="none" /><line stroke="#e1ed5e" stroke-width="0.3" x1="102.19456741930631" x2="102.32365962044197" y1="184.97166512339345" y2="189.96999836594603" /><path d="M 102.22038585953345 185.97133177190398 a86.0,86.0 0 0,1 -42.740103519485714,-10.115201625700543" fill="none" id="id19" stroke="none" /><text fill="#e1ed5e" style="font-size:6.75px; font-family:Arial;" text-anchor="middle"><textPath startOffset="22.20632615414155" xlink:href="#id19">July</textPath></text><path d="M 92.7421414339146 119.70592522655815 l -15.88372111261007 43.126139441074656 a66.95820383211456,66.95820383211456 0 0,0 -1.0781220323828986,-0.40765350141202783 l 16.623713365753254 -42.846337689555995" fill="#32ff2f" stroke="none" /><line stroke="#e1ed5e" stroke-width="0.3" x1="58.666819895761336" x2="56.23545636021788" y1="174.27360380694188" y2="178.64263932499728" /><path d="M 58.180547188652646 175.14741091055294 a86.0,86.0 0 0,1 -31.652253787137756,-30.449443065178592" fill="none" id="id20" stroke="none" /><text fill="#e1ed5e" style="font-size:6.75px; font-family:Arial;" text-anchor="middle"><textPath startOffset="22.20632615414155" xlink:href="#id20">August</textPath></text><path d="M 87.36589467227662 116.77436683061367 l -31.494780907974295 41.815783112152324 a73.34960307131149,73.34960307131149 0 0,0 -1.0019949475031038,-0.7682869984889084 l 32.20990458397088 -41.267456771836045" fill="#3aff95" stroke="none" /><path d="M 84.43433777217949 114.09645910891817 l -32.9544690420834 29.843980841211096 a65.45964712293843,65.45964712293843 0 0,0 -0.7491736614828983,-0.8417045506115002 l 33.463301553214635 -29.27230212085873" fill="#47ff2c" stroke="none" /><path d="M 84.19399662182784 113.82643327865904 l -18.361764047372866 16.062106239334486 a45.39560689499367,45.39560689499367 0 0,0 -0.50941975225646,-0.5925702593989762 l 18.635526309200102 -15.743658880773982" fill="#ff6609" stroke="none" /><path d="M 83.95833913139862 113.55231037782056 l -48.1155759126201 40.64898417418462 a83.98768577901731,83.98768577901731 0 0,0 -0.923480600288564,-1.1123918733571578 l 48.8081525128022 -39.8147310437137" fill="#4dd2ff" stroke="none" /><line stroke="#e1ed5e" stroke-width="0.3" x1="26.63291911575756" x2="22.317208475507996" y1="142.92168965132927" y2="145.44649492493687" /><path d="M 25.769776987707644 143.4266507060508 a86.0,86.0 0 0,1 -11.730757126820373,-40.83630448921669" fill="none" id="id21" stroke="none" /><text fill="#e1ed5e" style="font-size:6.75px; font-family:Arial;" text-anchor="middle"><textPath startOffset="21.46611528233685" xlink:href="#id21">September</textPath></text><path d="M 81.02952815118164 109.00673069616217 l -17.42550643099636 8.27321771008042 a40.28974871933494,40.28974871933494 0 0,0 -0.2920534493441839,-0.6290571475927857 l 17.565334497180373 -7.972040495208807" fill="#ff0000" stroke="none" /><path d="M 80.58989483394504 108.01547362559985 l -40.79938365906319 16.848254085292908 a65.1412887519386,65.1412887519386 0 0,0 -0.4190675149662636,-1.0400912046694937 l 41.083353788286836 -16.14346351278061" fill="#4cff2c" stroke="none" /><path d="M 80.45479744820244 107.68017299344265 l -47.14878777697844 18.52684031279101 a71.65818789508967,71.65818789508967 0 0,0 -0.4412292194665836,-1.1519102608011311 l 47.46071127603853 -17.71250648515672" fill="#37ff7a" stroke="none" /><path d="M 79.67330655649465 105.27499134158121 l -42.64388933782573 11.066539063698597 a65.05643635957287,65.05643635957287 0 0,0 -0.27196281165019376,-1.0863562428246425 l 42.82806346377099 -10.330854981476563" fill="#4dff2c" stroke="none" /><line stroke="#e1ed5e" stroke-width="0.3" x1="15.007084014347285" x2="10.007500721073583" y1="101.09737516637583" y2="101.16192664675087" /><path d="M 14.007167355692545 101.11028546245083 a86.0,86.0 0 0,1 10.666146001902534,-42.60595125391555" fill="none" id="id22" stroke="none" /><text fill="#e1ed5e" style="font-size:6.75px; font-family:Arial;" text-anchor="middle"><textPath startOffset="22.20632615414155" xlink:href="#id22">October</textPath></text><line stroke="#e1ed5e" stroke-width="0.3" x1="26.266209847984243" x2="21.928928074336255" y1="57.711370442889674" y2="55.22380399835377" /><path d="M 25.398753493254645 57.213857153982495 a86.0,86.0 0 0,1 29.58750427330803,-30.492523968695096" fill="none" id="id23" stroke="none" /><text fill="#e1ed5e" style="font-size:6.75px; font-family:Arial;" text-anchor="middle"><textPath startOffset="21.46611528233685" xlink:href="#id23">November</textPath></text><line stroke="#e1ed5e" stroke-width="0.3" x1="56.762969772571076" x2="54.21961505331055" y1="26.818313649435495" y2="22.513508569990535" /><path d="M 56.25429882871897 25.957352633546506 a86.0,86.0 0 0,1 42.265352541879196,-11.944610805530505" fill="none" id="id24" stroke="none" /><text fill="#e1ed5e" style="font-size:6.75px; font-family:Arial;" text-anchor="middle"><textPath startOffset="22.20632615414155" xlink:href="#id24">December</textPath></text></svg>