<?xml version="1.0" encoding="utf-8" ?>
<svg baseProfile="full" height="200mm" version="1.1" viewBox="0,0,200,200" width="200mm" xmlns="http://www.w3.org/2000/svg" xmlns:ev="http://www.w3.org/2001/xml-events" xmlns:xlink="http://www.w3.org/1999/xlink"><defs /><rect fill="#1a1a1a" height="200" width="200" x="0" y="0" /><text alignment-baseline="middle" fill="#e1ed5e" style="dominant-baseline: central; font-size:9.0px; font-family:Arial;" text-anchor="middle" x="100.0" y="100.0">2022</text><line stroke="#e1ed5e" stroke-width="0.3" x1="100.0" x2="100.0" y1="15.0" y2="10.0" /><path d="M 100.0 14.0 a86.0,86.0 0 0,1 42.46469731375804,11.215312516191453" fill="none" id="id1" stroke="none" /><text fill="#e1ed5e" style="font-size:6.75px; font-family:Arial;" text-anchor="middle"><textPath startOffset="22.20632615414155" xlink:href="#id1">January</textPath></text><line stroke="#e1ed5e" stroke-width="0.3" x1="143.23703022742887" x2="145.7803849466894" y1="26.81831364943548" y2="22.513508569990506" /><path d="M 143.74570117128098 25.957352633546492 a86.0,86.0 0 0,1 28.547481713284135,27.462654790039103" fill="none" id="id2" stroke="none" /><text fill="#e1ed5e" style="font-size:6.75px; font-family:Arial;" text-anchor="middle"><textPath startOffset="19.985693538727396" xlink:href="#id2">February</textPath></text><line stroke="#e1ed5e" stroke-width="0.3" x1="172.23445277983987" x2="176.4835382374775" y1="55.19839476539836" y2="52.563006222186495" /><path d="M 173.08426987136738 54.67131705675599 a86.0,86.0 0 0,1 12.851231095245387,41.99856678651699" fill="none" id="id3" stroke="none" /><text fill="#e1ed5e" style="font-size:6.75px; font-family:Arial;" text-anchor="middle"><textPath startOffset="22.20632615414155" xlink:href="#id3">March</textPath></text><line stroke="#e1ed5e" stroke-width="0.3" x1="184.98032266829074" x2="189.97916517819016" y1="98.17113171792111" y2="98.06355123074" /><path d="M 185.9800911702706 98.14961562048488 a86.0,86.0 0 0,1 -9.607161424134198,41.387399972396054" fill="none" id="id4" stroke="none" /><text fill="#e1ed5e" style="font-size:6.75px; font-family:Arial;" text-anchor="middle"><textPath startOffset="21.466115282336823" xlink:href="#id4">April</textPath></text><line stroke="#e1ed5e" stroke-width="0.3" x1="174.80103733775053" x2="179.2010983576182" y1="140.37084112569926" y2="142.7455964860345" /><path d="M 175.68104954172406 140.8457921977663 a86.0,86.0 0 0,1 -30.038265399797805,32.042727171017184" fill="none" id="id5" stroke="none" /><text fill="#e1ed5e" style="font-size:6.75px; font-family:Arial;" text-anchor="middle"><textPath startOffset="22.206326154141568" xlink:href="#id5">May</textPath></text><line stroke="#e1ed5e" stroke-width="0.3" x1="143.8653032363475" x2="146.44561519142675" y1="172.8068346515853" y2="177.08958963109032" /><path d="M 144.38136562736335 173.6633856474863 a86.0,86.0 0 0,1 -40.68145358897372,12.25698825130547" fill="none" id="id6" stroke="none" /><text fill="#e1ed5e" style="font-size:6.75px; font-family:Arial;" text-anchor="middle"><textPath startOffset="21.466115282336833" xlink:href="#id6">June</textPath></text><line stroke="#e1ed5e" stroke-width="0.3" x1="102.19456741930631" x2="102.32365962044197" y1="184.97166512339345" y2="189.96999836594603" /><path d="M 102.22038585953345 185.97133177190398 a86.0,86.0 0 0,1 -42.740103519485714,-10.115201625700543" fill="none" id="id7" stroke="none" /><text fill="#e1ed5e" style="font-size:6.75px; font-family:Arial;" text-anchor="middle"><textPath startOffset="22.20632615414155" xlink:href="#id7">July</textPath></text><line stroke="#e1ed5e" stroke-width="0.3" x1="58.666819895761336" x2="56.23545636021788" y1="174.27360380694188" y2="178.64263932499728" /><path d="M 58.180547188652646 175.14741091055294 a86.0,86.0 0 0,1 -31.652253787137756,-30.449443065178592" fill="none" id="id8" stroke="none" /><text fill="#e1ed5e" style="font-size:6.75px; font-family:Arial;" text-anchor="middle"><textPath startOffset="22.20632615414155" xlink:href="#id8">August</textPath></text><line stroke="#e1ed5e" stroke-width="0.3" x1="26.63291911575756" x2="22.317208475507996" y1="142.92168965132927" y2="145.44649492493687" /><path d="M 25.769776987707644 143.4266507060508 a86.0,86.0 0 0,1 -11.730757126820373,-40.83630448921669" fill="none" id="id9" stroke="none" /><text fill="#e1ed5e" style="font-size:6.75px; font-family:Arial;" text-anchor="middle"><textPath startOffset="21.46611528233685" xlink:href="#id9">September</textPath></text><path d="M 81.18737489456691 109.33194174019688 l -41.33981242582086 20.506480033826534 a67.146460479432,67.146460479432 0 0,0 -0.5047071484060389,-1.0398462150358012 l 41.686672830841616 -19.791844862825446" fill="#73ff27" stroke="none" /><path d="M 81.02952815118164 109.00673069616217 l -40.148948785876335 19.061769909055748 a65.44422527929477,65.44422527929477 0 0,0 -0.4743939175600641,-1.0218022943602119 l 40.47111732027623 -18.36784754741671" fill="#94ff23" stroke="none" /><path d="M 80.73074385275274 108.34839909993369 l -42.140067300291975 18.257170761164012 a66.92504280101913,66.92504280101913 0 0,0 -0.4488726958184014,-1.0610024580639008 l 42.448090977302684 -17.529093777433953" fill="#77ff27" stroke="none" /><path d="M 80.45479744820244 107.68017299344265 l -54.03694875059393 21.233502868159714 a79.05905161408049,79.05905161408049 0 0,0 -0.48679941064822024,-1.2708796501635509 l 54.39444244083566 -20.30019965116301" fill="#42ffd6" stroke="none" /><line stroke="#e1ed5e" stroke-width="0.3" x1="15.007084014347285" x2="10.007500721073583" y1="101.09737516637583" y2="101.16192664675087" /><path d="M 14.007167355692545 101.11028546245083 a86.0,86.0 0 0,1 10.666146001902534,-42.60595125391555" fill="none" id="id10" stroke="none" /><text fill="#e1ed5e" style="font-size:6.75px; font-family:Arial;" text-anchor="middle"><textPath startOffset="22.20632615414155" xlink:href="#id10">October</textPath></text><path d="M 79.62865764111835 94.90015583598534 l -60.78850100401615 -15.218038979614384 a83.66442822447465,83.66442822447465 0 0,0 0.3617636654645565,-1.3940229757216287 l 60.517541006681284 16.262158380884877" fill="#4cd8ff" stroke="none" /><path d="M 79.81627453868168 94.20196356495316 l -27.700694352215994 -7.957383062807196 a49.820971753276154,49.820971753276154 0 0,0 0.24387152840004814,-0.8222135587341078 l 27.55961692670424 8.433026008287843" fill="#ff0000" stroke="none" /><path d="M 79.91906864156998 93.8553929516997 l -55.08810366580367 -16.856526424024366 a78.60938854542863,78.60938854542863 0 0,0 0.4070638061261873,-1.2905035056360876 l 54.78978437590928 17.802280096086868" fill="#41ffce" stroke="none" /><path d="M 80.2630227832202 92.82701384747504 l -45.16811317068947 -16.415393641615427 a69.05854342163732,69.05854342163732 0 0,0 0.4156515720598128,-1.1137395641601495 l 44.87885701012804 17.190456342804918" fill="#4fff2b" stroke="none" /><path d="M 80.38941819471856 92.48833698450439 l -52.566936238205294 -20.135308309521935 a77.29132638507502,77.29132638507502 0 0,0 0.48659104220506444,-1.2383211273897539 l 52.212551646118534 21.037178441807452" fill="#3effb5" stroke="none" /><path d="M 81.6062741919709 89.86733742301443 l -26.839418557090763 -14.785192235646663 a51.64239380217764,51.64239380217764 0 0,0 0.4356216879725194,-0.7749223749289453 l 26.580939227825812 15.244998120510393" fill="#ff3004" stroke="none" /><line stroke="#e1ed5e" stroke-width="0.3" x1="26.266209847984243" x2="21.928928074336255" y1="57.711370442889674" y2="55.22380399835377" /><path d="M 25.398753493254645 57.213857153982495 a86.0,86.0 0 0,1 29.58750427330803,-30.492523968695096" fill="none" id="id11" stroke="none" /><text fill="#e1ed5e" style="font-size:6.75px; font-family:Arial;" text-anchor="middle"><textPath startOffset="21.46611528233685" xlink:href="#id11">November</textPath></text><path d="M 82.54541684631803 88.32363383020206 l -41.89847757726941 -28.028281273853672 a71.40899695946354,71.40899695946354 0 0,0 0.6922440339086706,-1.0157827013337055 l 41.409809077692 28.745341998457793" fill="#31ff3c" stroke="none" /><path d="M 82.95767976084542 87.72973835380427 l -37.182127226988314 -26.770675778588544 a66.81680550590856,66.81680550590856 0 0,0 0.6800594975722654,-0.9276003904223429 l 36.715805116902416 27.406738612682386" fill="#79ff26" stroke="none" /><path d="M 83.39014120810768 87.1503855733568 l -24.162141873524227 -18.692164134964642 a51.54842221727288,51.54842221727288 0 0,0 0.5489806800339125,-0.6971497137821523 l 23.836807112896345 19.105306242699843" fill="#ff2d04" stroke="none" /><path d="M 84.07557802195018 86.31012108654704 l -34.801935181783996 -29.918466067350977 a66.89432758217868,66.89432758217868 0 0,0 0.7581616307165526,-0.8667098053988193 l 34.2817816874896 30.513091428952738" fill="#78ff26" stroke="none" /><path d="M 84.31358615837235 86.03803664274999 l -47.05924152488297 -41.885890071750055 a84.0,84.0 0 0,0 0.9706254375358201,-1.071788850921776 l 46.331272446731106 42.68973170994139" fill="#4dd2ff" stroke="none" /><path d="M 84.80347519578584 85.50635884689758 l -22.293295876152598 -21.26216583802709 a51.806991692559805,51.806991692559805 0 0,0 0.6210319618596654,-0.640028026947015 l 21.923999650589817 21.64275806052423" fill="#ff3404" stroke="none" /><path d="M 86.10567301691215 84.25364557470407 l -30.713529531689826 -34.80745215269877 a67.42068096933087,67.42068096933087 0 0,0 0.8768098129610344,-0.760360829572433 l 30.10982592008202 35.330977975690885" fill="#6eff28" stroke="none" /><path d="M 88.09926311788651 82.69761687909137 l -32.16012478402903 -46.75733996487435 a77.74964728273784,77.74964728273784 0 0,0 1.1092109208312193,-0.7489441651561095 l 31.35050916879127 47.30399604232912" fill="#3fffbd" stroke="none" /><line stroke="#e1ed5e" stroke-width="0.3" x1="56.762969772571076" x2="54.21961505331055" y1="26.818313649435495" y2="22.513508569990535" /><path d="M 56.25429882871897 25.957352633546506 a86.0,86.0 0 0,1 42.265352541879196,-11.944610805530505" fill="none" id="id12" stroke="none" /><text fill="#e1ed5e" style="font-size:6.75px; font-family:Arial;" text-anchor="middle"><textPath startOffset="22.20632615414155" xlink:href="#id12">December</textPath></text><path d="M 90.91171255644093 81.06846463323043 l -14.421840112838867 -30.04169683735097 a54.32406069355281,54.32406069355281 0 0,0 0.8464769671244278,-0.39743228608186987 l 13.902584934414831 30.285494106072846" fill="#ff730a" stroke="none" /><path d="M 91.56875222667455 80.76684994638697 l -18.464196488102274 -42.1200599511023 a66.98941184920395,66.98941184920395 0 0,0 1.0600795054078502,-0.45387072092381253 l 17.736433224904115 42.4316501999889" fill="#76ff27" stroke="none" /><path d="M 92.57280143429618 80.3572730644239 l -20.726592592098903 -54.815660977680274 a79.60331329284061,79.60331329284061 0 0,0 1.285850037904519,-0.4735894206950974 l 19.779960228421817 55.16431366618169" fill="#43ffe0" stroke="none" /></svg>